<?xml version="1.0" encoding="UTF-8"?>
<svg width="512px" height="512px" viewBox="0 0 512 512" version="1.1" xmlns="http://www.w3.org/2000/svg" xmlns:xlink="http://www.w3.org/1999/xlink">
    <title>images/icons-vector</title>
    <g id="images/icons-" stroke="none" fill="none" fill-rule="evenodd">
        <path d="M403.480886,220.995604 C405.022386,220.573732 406.652439,221.261266 407.425947,222.659576 C441.330566,283.948585 434.963767,359.62399 391.295193,414.388784 C347.62662,469.153578 275.258977,492.219101 207.946443,472.826983 C206.455581,472.397461 205.432334,471.029004 205.442048,469.47778 C205.83352,407.335595 249.293257,353.782503 310.032205,340.597053 C364.350527,328.80542 402.553118,279.987163 400.93337,224.436437 C400.886783,222.839188 401.939387,221.417475 403.480886,220.995604 Z M319.998864,106.851692 C321.166987,105.888122 322.825792,105.795084 324.094374,106.621984 C363.101812,132.047277 383.013139,178.413861 374.586942,224.201686 C366.160745,269.989512 331.04685,306.233458 285.542612,316.111681 C220.407488,330.251475 175.854986,390.48616 181.412143,456.89538 C181.517226,458.151036 180.93182,459.364656 179.88362,460.064201 C178.835419,460.763746 177.489891,460.838789 176.370379,460.26014 C162.19118,452.931422 149.093507,443.677819 137.449379,432.762165 C136.977719,432.320037 136.639256,431.754733 136.472296,431.130235 C127.099483,396.066028 132.495953,358.693854 151.405664,327.712182 C170.315376,296.73051 201.08883,274.841878 236.563426,267.140922 C269.876111,259.909269 298.28911,238.327157 314.188179,208.178259 C330.087248,178.029362 331.846746,142.396329 318.995154,110.828262 C318.424207,109.425892 318.83074,107.815262 319.998864,106.851692 Z M246.530112,33.3956243 C247.698217,32.4320713 249.356989,32.339019 250.625566,33.1658813 C289.633003,58.5911701 309.544334,104.957749 301.118144,150.745573 C292.691954,196.533397 257.578066,232.777347 212.073833,242.655578 C147.215101,256.735775 102.720487,316.541442 107.883476,382.698904 C108.012163,384.348042 106.956287,385.857897 105.362923,386.30318 C103.769559,386.748464 102.0837,386.004818 101.338495,384.527974 C92.7620773,367.596564 86.1252822,347.21275 83.8377986,325.8178 C81.5502861,304.42285 83.6120996,282.016733 90.2148554,262.595017 C96.8176401,243.173244 107.961338,226.735942 120.988751,215.128881 C134.016164,203.521848 148.927248,196.745114 163.094618,193.684819 C196.407315,186.453175 224.820328,164.871062 240.719404,134.722156 C256.61848,104.57325 258.377977,68.9402044 245.526375,37.3721305 C244.955466,35.9697722 245.362007,34.3591774 246.530112,33.3956243 Z M168.067695,46.2867969 C194.764161,46.2867969 216.405922,67.9248284 216.405922,94.616693 C216.405922,121.308558 194.764161,142.946589 168.067695,142.946589 C141.371229,142.946589 119.729468,121.308558 119.729468,94.616693 C119.729468,67.9248284 141.371229,46.2867969 168.067695,46.2867969 Z" id="Combined-Shape" fill="#FFB43C"></path>
    </g>
</svg>