<?xml version="1.0" encoding="UTF-8"?>
<svg width="16px" height="16px" viewBox="0 0 16 16" version="1.1" xmlns="http://www.w3.org/2000/svg" xmlns:xlink="http://www.w3.org/1999/xlink">
    <title>images/mask-icon</title>
    <defs>
        <path d="M0,0 L16,0 L16,16 L0,16 L0,0 Z" id="path-1"></path>
        <filter x="-9.4%" y="-9.4%" width="118.8%" height="118.8%" filterUnits="objectBoundingBox" id="filter-2">
            <feGaussianBlur stdDeviation="1" in="SourceAlpha" result="shadowBlurInner1"></feGaussianBlur>
            <feOffset dx="0" dy="1" in="shadowBlurInner1" result="shadowOffsetInner1"></feOffset>
            <feComposite in="shadowOffsetInner1" in2="SourceAlpha" operator="arithmetic" k2="-1" k3="1" result="shadowInnerInner1"></feComposite>
            <feColorMatrix values="0 0 0 0 0   0 0 0 0 0   0 0 0 0 0  0 0 0 0.25 0" type="matrix" in="shadowInnerInner1"></feColorMatrix>
        </filter>
    </defs>
    <g id="images/mask-icon" stroke="none" fill="none" xlink:href="#path-1">
        <use fill="#FFFFFF" fill-rule="evenodd" xlink:href="#path-1"></use>
        <use fill="black" fill-opacity="1" filter="url(#filter-2)" xlink:href="#path-1"></use>
        <path d="M12.6087777,6.90611261 C12.6569496,6.89292914 12.7078887,6.91441458 12.7320608,6.95811174 C13.7915802,8.8733933 13.5926177,11.2382497 12.2279748,12.9496495 C10.8633319,14.6610493 8.60184302,15.3818469 6.49832634,14.7758432 C6.4517369,14.7624206 6.41976045,14.7196564 6.42006399,14.6711806 C6.4322975,12.7292373 7.79041429,11.0557032 9.68850641,10.6436579 C11.385954,10.2751694 12.5797849,8.74959884 12.5291678,7.01363867 C12.527712,6.96372461 12.5606058,6.91929609 12.6087777,6.90611261 Z M10.0852608,3.31562188 L10.1279492,3.331937 C11.3469316,4.12647741 11.9691606,5.57543315 11.7058419,7.00630269 C11.4425233,8.43717223 10.3452141,9.56979557 8.92320663,9.87849003 C6.887734,10.3203586 5.4954683,12.2026925 5.66912946,14.2779806 C5.67241331,14.3172199 5.65411939,14.3551455 5.62136312,14.3770063 C5.58860685,14.3988671 5.54655908,14.4012121 5.51157434,14.3831294 C5.06847437,14.1541069 4.65917208,13.8649319 4.29529309,13.5238177 C4.28055372,13.5100011 4.26997674,13.4923354 4.26475923,13.4728199 C3.97185883,12.3770634 4.14049853,11.2091829 4.73142701,10.2410057 C5.3223555,9.27282842 6.28402592,8.58880869 7.39260706,8.3481538 C8.43362846,8.12216464 9.32153469,7.44772366 9.81838059,6.50557061 C10.3152265,5.56341755 10.3702108,4.44988527 9.96859858,3.46338319 C9.95075648,3.41955913 9.96346061,3.36922694 9.99996449,3.33911538 C10.0364684,3.30900382 10.088306,3.30609636 10.1279492,3.331937 Z M7.7893609,1.02011959 L7.83204894,1.03643379 C9.05103136,1.83097406 9.67326043,3.27992965 9.40994199,4.71079915 C9.14662356,6.14166866 8.04931457,7.2742921 6.62730727,7.58298682 C4.60047192,8.02299298 3.21001523,9.89192006 3.37135862,11.9593408 C3.37538008,12.0108763 3.34238397,12.0580593 3.29259135,12.0719744 C3.24279873,12.0858895 3.19011564,12.0626506 3.16682795,12.0164992 C2.89881492,11.4873926 2.69141507,10.8503985 2.61993121,10.1818062 C2.54844644,9.51321405 2.61287811,8.81302292 2.81921423,8.20609429 C3.02555125,7.59916386 3.37379182,7.08549819 3.78089847,6.72277752 C4.18800511,6.36005776 4.65397649,6.14828482 5.0967068,6.05265059 C6.1377286,5.82666171 7.02563526,5.15222068 7.52248139,4.21006736 C8.01932751,3.26791405 8.07431177,2.15438139 7.67269922,1.16787908 C7.65485831,1.12405538 7.66756273,1.07372429 7.70406601,1.04361326 C7.74056929,1.01350223 7.79240591,1.01059434 7.83204894,1.03643379 Z M5.25211546,1.4464624 C6.08638002,1.4464624 6.76268506,2.12265089 6.76268506,2.95677166 C6.76268506,3.79089243 6.08638002,4.46708091 5.25211546,4.46708091 C4.41785091,4.46708091 3.74154587,3.79089243 3.74154587,2.95677166 C3.74154587,2.12265089 4.41785091,1.4464624 5.25211546,1.4464624 Z" id="Combined-Shape" fill="#000000" fill-rule="evenodd"></path>
    </g>
</svg>